<svg xmlns="http://www.w3.org/2000/svg" width="280" height="335" fill="none"><path fill="#68BAB2" d="m130.661 1.722-113.84 43.51A26.49 26.49 0 0 0 0 69.933V179.47l52.318-30.066V87.814l87.681-33.642V0c-3.191.007-6.354.59-9.338 1.722ZM53.245 247.019l86.754-50v-60.397L5.96 213.906A12.056 12.056 0 0 0 0 224.237v40.464a26.492 26.492 0 0 0 16.821 24.437l113.84 43.509a26.489 26.489 0 0 0 9.338 1.722v-54.172l-86.754-33.178Z"/><path fill="#54AEA3" d="M274.436 119.403a11.065 11.065 0 0 0 5.563-9.735V69.933a26.49 26.49 0 0 0-16.821-24.702L149.271 1.721A26.483 26.483 0 0 0 140 0v54.172l86.092 33.112L140 136.886v60.397l134.436-77.88ZM149.271 332.647l113.907-43.509a26.49 26.49 0 0 0 16.821-24.437V154.039l-52.317 30.199v62.45L140 280.197v54.172a26.484 26.484 0 0 0 9.271-1.722Z"/></svg>