<svg fill="none" viewBox="0 0 280 300" xmlns="http://www.w3.org/2000/svg" alt="Mirahi Logo"><path d="M278.777 152.002c-1.019-11.36-5.31-47.718-29.552-86.938-9.793-15.836-18.959-30.137-35.976-42.5-41.416-30.085-105.073-30.085-146.49 0-17.025 12.354-26.191 26.664-35.984 42.491-24.25 39.229-28.533 75.587-29.552 86.947-1.245 13.891-2.446 27.249 1.288 44.438 10.167 46.855 47.902 73.772 55.892 79.217 47.701 32.457 115.484 32.457 163.193 0 7.991-5.436 45.726-32.362 55.892-79.217 3.735-17.189 2.533-30.556 1.289-44.438z" fill="#f83756"></path><path d="M39.231 110.705c3.334-38.984 46.56-66.547 75.094-71.171 4.796-.777 14.815-1.815 26.645-2.016a368.37 368.37 0 0 0-3.134-.035c-13.84-.043-25.922 1.17-31.345 2.05-28.533 4.625-71.752 32.197-75.094 71.172-1.489 17.381 4.962 37.048 16.687 47.187 2.924 2.53 12.177 10.321 25.957 11.997 2.55.314 4.717.349 7.781-.009-13.753-1.684-22.988-9.467-25.913-11.988-11.716-10.139-18.166-29.806-16.678-47.187z" fill="red"></path><path d="M242.773 110.707c-3.343-39.142-46.796-66.565-75.094-71.172-5.475-.89-17.018-2.007-29.848-2.05-1.593-.01-3.16.008-4.701.034 11.551.192 21.684 1.196 26.706 2.016 28.299 4.607 71.752 32.03 75.094 71.172.383 4.45 2.237 31.131-16.686 47.186-8.748 7.425-18.541 9.694-24.225 10.496-3.848-.227-9.175-.68-15.451-1.701-9.523-1.545-14.11-2.958-20.447-4.337-13.962-3.036-14.249-3.289-17.557-3.289-1.419 0-2.289.044-3.917.34 3.491.628 10.507 2.391 34.096 7.286 14.093 2.923 18.549 3.734 23.415 3.359 2.168.157 3.952.087 5.963-.157 13.779-1.675 23.032-9.467 25.957-11.997 11.733-10.139 18.175-29.797 16.695-47.186z" fill="red"></path><path d="M49.095 157.751c2.96 2.557 12.334 10.453 26.279 12.146 5.692.689 9.522.043 25.347-3.237 35.019-7.26 33.957-7.722 38.483-7.722s3.473.462 38.483 7.722c15.816 3.28 19.646 3.935 25.348 3.237 13.953-1.693 23.319-9.589 26.279-12.146 11.873-10.261 18.401-30.163 16.895-47.779-3.377-39.639-47.379-67.403-76.034-72.07-5.545-.908-17.226-2.034-30.214-2.077-14.014-.044-26.244 1.186-31.736 2.076-28.882 4.695-72.649 32.607-76.026 72.071-1.506 17.599 5.023 37.51 16.896 47.779z" fill="#fff"></path><g fill="#39005d"><path d="M250.16 98.481c-10.193-39.254-52.149-62.638-79.969-67.08-6.537-1.046-18.288-2.041-30.213-2.076-11.795-.035-20.621-.14-31.737 2.077-9.558 1.902-24.756 5.104-39.693 16.691-11.438 8.874-18.462 19.361-22.701 27.633a115.36 115.36 0 0 1 14.597-14.632c7.573-6.344 14.12-10.174 16.208-11.37 4.413-2.52 15.695-8.533 31.589-11.813 11.063-2.286 19.281-2.12 31.737-2.077 12.987.044 24.668 1.17 30.213 2.077 31.833 5.183 72.257 34.29 76.034 72.07.244 2.4.349 5.139.227 8.15a5.195 5.195 0 0 0-.122.2c-.017.812-.07 3.002-.453 6.021a67.326 67.326 0 0 1-2.202 9.894c-.278 1.021-.557 2.042-.836 3.054-2.419 6.875-6.528 14.405-13.518 20.452-2.959 2.556-12.334 10.453-26.279 12.145-5.693.69-9.523.044-25.347-3.237-35.019-7.259-33.957-7.722-38.483-7.722-4.527 0-3.473.463-38.483 7.722-15.816 3.281-19.646 3.935-25.348 3.237-13.953-1.692-23.32-9.589-26.279-12.145-10.019-8.664-16.208-24.195-17-39.412-.914 17.119 5.545 36.009 17 45.912 2.96 2.557 12.335 10.453 26.28 12.146 5.692.689 9.522.043 25.347-3.237 35.018-7.26 33.956-7.722 38.483-7.722 4.526 0 3.473.462 38.483 7.722 15.816 3.28 19.646 3.935 25.347 3.237 12.43-1.51 21.692-8.525 26.279-12.146 4.03-3.176 12.1-9.676 17.592-20.26 10.045-19.352 4.788-39.569 3.247-45.51z" opacity="0.2"></path><path d="M78.154 219.303c3.83 3.351 10.794 7.12 17.06 9.144l.28.698-4.875 9.214-.766.21c-6.685-2.583-13.3-6.143-18.036-10.959v-.698l5.71-7.609zm.766 23.175c6.406 4.397 14.763 7.399 25.765 9.632l.279.489-4.666 10.191-.696.279c-10.306-2.373-20.752-6.91-27.367-11.727l-.07-.698 6.058-8.027zm6.546-39.299c6.824 2.164 13.16 4.956 19.289 8.376v.698l-6.058 8.446-.697.21c-6.128-3.839-12.743-6.911-19.428-9.214l-.07-.558 6.267-7.888zM114.008 230.61v-9.144l.627-.419 9.54.21h26.741l9.749-.21.487.559c-2.437 22.127-12.952 33.854-32.311 40.555-.627.209-1.114.349-1.462.349-.557 0-.975-.21-1.602-.768l-7.869-6.561c16.016-4.887 26.462-12.216 29.526-24.222h-23.328l-9.61.21zm31.267-14.658h-16.086l-8.495.209-.488-.558v-9.005l.627-.418 8.426.209h15.738l9.609-.209.558.488v8.935l-.488.558zM183.586 226.423c6.825-3.211 15.042-7.539 22.354-12.844h.627l6.824 8.237-.07.698c-8.774 5.723-18.941 10.47-29.804 14.518v4.747c0 1.954.069 3.001.627 3.699.835.978 2.298 1.187 5.222 1.187 7.869 0 14.345-.488 23.816-1.536l.557.349.418 10.192-.418.488c-7.381.628-17.618 1.187-23.885 1.187-6.755 0-12.117-.628-15.111-4.398-1.95-2.373-2.089-5.793-2.089-10.54l.208-32.318.488-.489h9.819l.487.489zM85.266 130.031c-11.238 0-20.378-9.161-20.378-20.426 0-11.264 9.14-20.425 20.378-20.425s20.377 9.161 20.377 20.425c0 11.256-9.14 20.426-20.377 20.426zm0-36.497c-8.835 0-16.025 7.207-16.025 16.063s7.19 16.063 16.025 16.063 16.025-7.207 16.025-16.063-7.19-16.063-16.025-16.063z"></path><path d="M85.263 121.298c6.447 0 11.673-5.239 11.673-11.701s-5.226-11.7-11.673-11.7-11.672 5.238-11.672 11.7 5.226 11.701 11.672 11.701zM192.615 130.031c-11.237 0-20.377-9.161-20.377-20.426 0-11.264 9.14-20.425 20.377-20.425 11.238 0 20.378 9.161 20.378 20.425 0 11.256-9.14 20.426-20.378 20.426zm0-36.497c-8.835 0-16.025 7.207-16.025 16.063s7.19 16.063 16.025 16.063 16.025-7.207 16.025-16.063-7.19-16.063-16.025-16.063z"></path><path d="M192.617 121.298c6.446 0 11.672-5.239 11.672-11.701s-5.226-11.7-11.672-11.7c-6.447 0-11.673 5.238-11.673 11.7s5.226 11.701 11.673 11.701z"></path><path d="M192.62 130.068c-10.942 0-19.899-8.699-20.36-19.553-.009.288-.026.576-.026.872 0 11.264 9.14 20.426 20.377 20.426 11.238 0 20.378-9.162 20.378-20.426 0-.296-.009-.584-.026-.872-.444 10.854-9.401 19.553-20.343 19.553zM85.259 130.068c-10.942 0-19.899-8.699-20.36-19.553-.009.288-.026.576-.026.872 0 11.264 9.14 20.426 20.377 20.426 11.238 0 20.378-9.162 20.378-20.426 0-.296-.009-.584-.027-.872-.444 10.854-9.4 19.553-20.342 19.553z" opacity="0.3"></path><path d="M201.33 146.287c-.253-1.012-1.375-1.641-2.507-1.423-1.132.227-1.854 1.222-1.602 2.234 0 .009.288 1.196-.452 1.824-.697.593-1.994.445-2.481.392-2.255-.253-3.848-1.832-4.805-2.774l-.218-.21c-6.685-6.5-17.853-10.086-22.344-10.522-2.62-.253-6.198-.672-13.336 0-9.392.881-10.036 3.272-14.649 3.272-4.605 0-5.249-2.391-14.65-3.272-7.129-.672-10.715-.253-13.336 0-4.491.436-15.668 4.022-22.344 10.522l-.218.21c-.957.942-2.559 2.521-4.805 2.774-.487.053-1.793.201-2.48-.392-.74-.628-.453-1.815-.453-1.824.252-1.012-.461-2.007-1.602-2.234-1.131-.218-2.254.411-2.507 1.423-.13.541-.687 3.341 1.654 5.331 1.42 1.213 3.412 1.684 5.928 1.396 3.795-.428 6.232-2.827 7.399-3.979l.191-.192c5.72-5.558 15.677-7.067 19.699-7.451 4.631-.445 8.922.375 11.899.855 9.584 1.536 9.941 3.63 15.633 3.63 5.693 0 6.05-2.094 15.634-3.63 2.977-.48 7.259-1.3 11.899-.855 4.021.392 13.979 1.893 19.698 7.451l.192.192c1.166 1.152 3.595 3.551 7.399 3.979 2.506.288 4.5-.183 5.927-1.396 2.324-1.99 1.767-4.79 1.637-5.331z"></path><path d="M201.33 148.033c-.253-1.013-1.375-1.641-2.507-1.423-1.132.227-1.854 1.222-1.602 2.234 0 .009.288 1.195-.452 1.824-.697.593-1.994.445-2.481.392-2.255-.253-3.848-1.832-4.805-2.774l-.218-.21c-6.685-6.5-17.853-10.086-22.344-10.522-2.62-.253-6.198-.672-13.336 0-9.392.881-10.036 3.272-14.649 3.272-4.605 0-5.249-2.391-14.65-3.272-7.129-.672-10.715-.253-13.336 0-4.491.436-15.668 4.022-22.344 10.522l-.218.21c-.957.942-2.559 2.521-4.805 2.774-.487.053-1.793.201-2.48-.392-.74-.629-.453-1.815-.453-1.824.252-1.012-.461-2.007-1.602-2.234-1.131-.218-2.254.41-2.507 1.423-.13.541-.687 3.341 1.654 5.331 1.42 1.212 3.412 1.684 5.928 1.396 3.795-.428 6.232-2.827 7.399-3.979l.191-.192c5.72-5.558 15.677-7.067 19.699-7.451 4.631-.445 8.922.375 11.899.855 9.584 1.535 9.941 3.629 15.633 3.629 5.693 0 6.05-2.094 15.634-3.629 2.977-.48 7.259-1.3 11.899-.855 4.021.392 13.979 1.893 19.698 7.451l.192.192c1.166 1.152 3.595 3.551 7.399 3.979 2.506.288 4.5-.184 5.927-1.396 2.324-1.99 1.767-4.79 1.637-5.331z" opacity="0.4"></path><path d="M63.582 63.755c.079-3.115 22.597-9.476 41.774-.07 3.899 1.91 12.908 6.483 15.668 15.705.618 2.06 2.254 7.521-.871 12.216-3.212 4.834-9.044 5.217-9.462 5.244-5.98.296-9.897-4.11-10.959-5.305-3.847-4.328-3.255-8.263-4.822-12.146-5.449-13.585-31.406-12.285-31.328-15.644zM214.271 63.755c-.078-3.115-22.597-9.476-41.773-.07-3.9 1.91-12.909 6.483-15.668 15.705-.618 2.06-2.255 7.521.87 12.216 3.212 4.834 9.044 5.217 9.462 5.244 5.98.296 9.897-4.11 10.959-5.305 3.847-4.328 3.256-8.263 4.822-12.146 5.458-13.585 31.415-12.285 31.328-15.644zM153.361 66.302c-1.21-1.396-3.569-1.51-5.223-.873-1.95.75-2.855 2.522-3.325 3.464-2.141 4.345-1.027 10.095 1.871 14.04 2.394 3.262 5.972 5.217 6.537 4.676.558-.541-2.672-2.757-2.802-6.553-.131-4.03 3.386-5.48 3.734-11.23.113-1.805-.166-2.809-.792-3.524zM124.501 66.302c1.21-1.396 3.568-1.51 5.222-.873 1.95.75 2.855 2.522 3.326 3.464 2.141 4.345 1.027 10.095-1.872 14.04-2.394 3.262-5.971 5.217-6.537 4.676-.557-.541 2.672-2.757 2.803-6.553.13-4.03-3.386-5.48-3.734-11.23-.114-1.805.174-2.809.792-3.524zM158.419 106.771c-.983 0-1.941.122-2.846.357-2.385.611-4.013 1.859-4.857 2.609.557.376 2.263 1.615 2.881 3.909.043.166.896 3.482-.871 5.235-.774.777-1.21.393-2.184 1.239-1.454 1.266-.688 2.452-2.203 3.883-1.349 1.274-3.151 2.068-5.144 2.068h-8.548c-1.993 0-3.795-.794-5.144-2.068-1.515-1.431-.749-2.617-2.203-3.883-.975-.846-1.401-.462-2.184-1.239-1.767-1.753-.914-5.069-.871-5.235.618-2.294 2.324-3.533 2.881-3.909a11.639 11.639 0 0 0-4.857-2.609 11.388 11.388 0 0 0-2.846-.357c-6.381 0-11.551 5.183-11.551 11.578 0 6.396 5.17 11.579 11.551 11.579 1.34 0 2.611-.236 3.812-.655a44.413 44.413 0 0 1 15.686 12.879 43.997 43.997 0 0 1 6.015-6.431 44.2 44.2 0 0 1 9.671-6.448c1.192.419 2.472.655 3.812.655 6.381 0 11.551-5.183 11.551-11.579 0-6.395-5.17-11.578-11.551-11.578zM139.648 151.924c-9.418-.227-18.158 10.714-20.534 20.582-.644 2.67-2.464 10.226 1.863 16.84 5.866 8.961 17.948 8.49 19.602 8.42 1.497-.061 12.831-.663 17.74-8.42 7.878-12.459-4.761-37.082-18.671-37.422zM93.375 135.206c-.21-1.283-22.214-4.511-34.54 7.486-5.815 5.663-7.425 12.713-15.529 15.225-2.707.838-6.31 1.222-9.575 4.363-1.088 1.047-3.673 3.534-3.482 6.98.253 4.476 4.97 6.858 5.223 6.98 4.753 2.313 10.028-.253 11.316-.872 11.011-5.331 7.8-18.34 17.653-28.933 11.185-12.032 29.125-10.069 28.934-11.229zM185.174 135.206c.209-1.282 22.214-4.511 34.539 7.486 5.815 5.663 7.425 12.713 15.529 15.226 2.707.838 6.311 1.222 9.575 4.363 1.088 1.047 3.674 3.533 3.482 6.98-.252 4.476-4.97 6.858-5.223 6.98-4.752 2.312-10.027-.253-11.316-.873-11.011-5.331-7.799-18.34-17.652-28.932-11.186-12.033-29.126-10.069-28.934-11.23zM214.556 123.461c-1.384 2.836 7.529 13.672 18.645 13.725 8.461.035 13.701-6.501 13.988-6.858.801-1.021 6.328-8.019 3.195-13.394-2.403-4.118-8.653-5.174-12.857-3.682-4.492 1.588-4.091 5.166-8.983 7.932-6.729 3.786-12.926.104-13.988 2.277zM62.463 127.048c1.384 2.836-7.53 13.672-18.645 13.725-1.027.008-9.532-.131-13.989-6.858-2.898-4.389-4.16-11.718-.435-15.235 2.881-2.713 7.443-1.937 7.965-1.841 5.17.951 5.745 5.122 11.116 7.932 7.085 3.699 12.9.061 13.988 2.277z"></path></g></svg>