<svg width="185" height="40" viewBox="0 0 185 40" fill="none" xmlns="http://www.w3.org/2000/svg">
<path
    d="M53.8301 15.1095C53.4303 13.7584 51.746 12.6257 49.699 12.6257C47.5409 12.6257 45.827 13.8324 45.827 15.3316C45.827 16.283 46.5932 17.0862 48.1665 17.7451C48.8624 18.0376 50.2505 18.4744 52.3716 19.0963C53.9448 19.5368 54.6 19.6811 56.1732 20.5214C56.9432 20.9249 57.5614 21.3987 58.0019 21.8762C58.8792 22.7869 59.7195 24.5082 59.7195 26.5182C59.7195 28.965 58.8422 30.9417 57.0506 32.4372C55.2959 33.8994 53.0305 34.6286 50.2172 34.6286C47.6963 34.6286 45.5012 34.0437 43.7133 32.874C41.9217 31.6673 40.752 30.2051 40.2041 28.4172L45.1015 26.955C45.5049 28.5615 47.5483 29.9163 50.2172 29.9163C52.8121 29.9163 54.8221 28.7096 54.8221 26.955C54.8221 26.222 54.3483 25.5668 53.9078 25.1634C53.6894 24.982 53.3229 24.7636 52.8491 24.5415C51.9348 24.1047 51.7904 24.1047 50.8021 23.7752C47.7334 22.8609 45.6863 22.1317 44.6276 21.5838C42.1808 20.2697 40.937 18.293 40.937 15.6981C40.937 13.3956 41.7403 11.5337 43.3505 10.1085C44.9941 8.68338 47.0782 7.95044 49.636 7.95044C51.8645 7.95044 53.8375 8.49829 55.4847 9.594C57.1283 10.6527 58.224 12.0408 58.7385 13.6881L53.8301 15.1095Z"
    fill="white"
  />
<path
    d="M63.2627 34.0776V8.49512H67.6085L81.0938 25.671V8.49512H85.8098V34.0776H81.4603L67.975 16.935V34.0776H63.2627Z"
    fill="white"
  />
<path
    d="M87.4893 8.49512H93.1566L99.6234 19.0191L106.312 8.49512H111.939L102.107 23.4796V34.0776H97.2099V23.624L87.4893 8.49512Z"
    fill="white"
  />
<path
    d="M113.661 34.0776V8.49512H124.041C127.842 8.49512 131.022 9.73889 133.543 12.1857C136.101 14.6325 137.378 17.6679 137.378 21.2845C137.378 24.9011 136.101 27.9365 133.543 30.3833C131.022 32.8301 127.842 34.0739 124.041 34.0739H113.661V34.0776ZM118.555 13.026V29.543H124.037C126.376 29.543 128.349 28.7397 129.919 27.1665C131.492 25.56 132.296 23.5833 132.296 21.2845C132.296 18.945 131.492 16.972 129.919 15.3988C128.349 13.8293 126.373 13.0223 124.037 13.0223H118.555V13.026Z"
    fill="white"
  />
<path
    d="M159.78 8.49512V13.026H145.821V18.871H157.77V23.4056H145.821V29.543H159.962V34.0776H140.924V8.49512H159.78Z"
    fill="white"
  />
<path
    d="M175.168 8.49512C177.689 8.49512 179.773 9.29839 181.454 10.8716C183.171 12.4448 184.011 14.4178 184.011 16.7536C184.011 20.0814 182.113 22.8947 179.151 24.2088L185 34.0739H179.555L174.183 25.0491H168.227V34.0739H163.33V8.49512H175.168ZM168.224 13.026V20.5182H175.168C177.326 20.5182 178.896 18.9117 178.896 16.7536C178.896 14.5992 177.323 13.026 175.168 13.026H168.224Z"
    fill="white"
  />
<path d="M27.7661 0.0441763L18.0047 13.7738L11.6045 0.0145627L11.6156 -0.000244141L27.7661 0.0441763Z" fill="#2BB6EA" />
<path d="M18.0062 13.7699L9.75885 25.3674L3.3623 11.6118L11.606 0.0144043L18.0062 13.7699Z" fill="#52C8EB" />
<path d="M24.4018 27.5293L16.1581 39.1267L9.75781 25.3675L18.0052 13.77L24.4018 27.5293Z" fill="#44B8E9" />
<path d="M16.1579 39.1269L16.1468 39.1417L0 39.0973L9.75769 25.3713L16.1579 39.1269Z" fill="#1AA6D7" />
</svg>
