<?xml version="1.0" encoding="UTF-8" standalone="no"?>
<svg aria-hidden="true" role="img" class="iconify iconify--logos" width="31.879999" height="32"
  preserveAspectRatio="xMidYMid meet" viewBox="-50 -50 356 357" version="1.1" id="svg20"
  xmlns="http://www.w3.org/2000/svg" xmlns:svg="http://www.w3.org/2000/svg">

  <defs id="defs14">
    <linearGradient id="IconifyId1813088fe1fbc01fb466" x1="-0.0082799997" x2="0.57635999" y1="0.076519996"
      y2="0.78411001">
      <stop offset="0%" stop-color="#41D1FF" id="stop2" />
      <stop offset="100%" stop-color="#BD34FE" id="stop4" />
    </linearGradient>
    <linearGradient id="IconifyId1813088fe1fbc01fb467" x1="0.43375999" x2="0.50316" y1="0.02242" y2="0.89029998">
      <stop offset="0%" stop-color="#FFEA83" id="stop7" />
      <stop offset="8.333%" stop-color="#FFDD35" id="stop9" />
      <stop offset="100%" stop-color="#FFA800" id="stop11" />
    </linearGradient>
  </defs>
  <path fill="url(#IconifyId1813088fe1fbc01fb466)"
    d="M 255.153,37.938 134.897,252.976 c -2.483,4.44 -8.862,4.466 -11.382,0.048 L 0.875,37.958 c -2.746,-4.814 1.371,-10.646 6.827,-9.67 l 120.385,21.517 a 6.537,6.537 0 0 0 2.322,-0.004 L 248.276,28.318 c 5.438,-0.991 9.574,4.796 6.877,9.62 z"
    id="path16" />
  <path fill="url(#IconifyId1813088fe1fbc01fb467)"
    d="M 185.432,0.063 96.44,17.501 a 3.268,3.268 0 0 0 -2.634,3.014 l -5.474,92.456 a 3.268,3.268 0 0 0 3.997,3.378 l 24.777,-5.718 c 2.318,-0.535 4.413,1.507 3.936,3.838 l -7.361,36.047 c -0.495,2.426 1.782,4.5 4.151,3.78 l 15.304,-4.649 c 2.372,-0.72 4.652,1.36 4.15,3.788 l -11.698,56.621 c -0.732,3.542 3.979,5.473 5.943,2.437 l 1.313,-2.028 72.516,-144.72 c 1.215,-2.423 -0.88,-5.186 -3.54,-4.672 l -25.505,4.922 c -2.396,0.462 -4.435,-1.77 -3.759,-4.114 L 189.202,4.176 c 0.677,-2.35 -1.37,-4.583 -3.769,-4.113 z"
    id="path18" />
</svg>
